<svg xmlns="http://www.w3.org/2000/svg" viewBox="0 0 113.82 148.71"><title>accessibility-2</title><g id="Livello_2" data-name="Livello 2"><g id="Livello_2-2" data-name="Livello 2"><path d="M79.67,91.37H45.54v11.45H34.17v34.34H45.6v11.55H79.73V137.16H90.8V102.82H79.67ZM56.81,125.76V114.37H68.19l.2,11.39Z"/><rect x="56.96" width="22.68" height="22.68"/><rect x="22.82" y="34.02" width="11.45" height="11.45"/><polygon points="113.82 57.13 102.43 57.13 91.09 57.13 91.04 57.13 91.04 68.58 91.09 68.58 91.09 102.82 102.43 102.82 102.43 68.58 113.82 68.58 113.82 57.13"/><polygon points="68.3 79.92 79.51 79.92 79.51 34.13 56.88 34.13 56.88 45.58 34.09 45.58 34.09 57.03 56.88 57.03 56.88 68.47 11.34 68.47 11.34 79.92 11.34 114.32 0 114.32 0 125.77 22.68 125.77 22.68 125.71 22.68 114.32 22.68 79.92 56.88 79.92 68.3 79.92"/></g></g></svg>