<svg xmlns="http://www.w3.org/2000/svg" viewBox="0 0 103.04 102.46"><title>arrow-left</title><g id="Livello_2" data-name="Livello 2"><g id="Livello_2-2" data-name="Livello 2"><polygon points="34.3 22.75 22.88 22.75 22.88 34.2 11.45 34.2 11.45 45.51 0 45.51 0 56.95 11.45 56.95 11.45 68.26 22.88 68.26 22.88 79.71 34.3 79.71 34.3 91.09 45.74 91.09 45.74 79.64 34.33 79.64 34.33 68.26 22.89 68.26 22.89 56.81 11.45 56.81 11.45 45.65 22.89 45.65 22.89 34.2 34.33 34.2 34.33 22.82 45.74 22.82 45.74 11.38 34.3 11.38 34.3 22.75"/><polygon points="103.03 22.82 103.03 22.75 68.69 22.75 68.69 11.45 68.69 0 57.24 0 45.79 0 45.79 11.45 57.24 11.45 57.24 34.2 57.24 34.2 68.69 34.2 91.59 34.2 91.59 68.26 68.69 68.26 57.24 68.26 57.24 68.26 57.24 91.02 45.79 91.02 45.79 102.46 57.24 102.46 68.69 102.46 68.69 91.02 68.69 79.71 91.59 79.71 103.03 79.71 103.04 79.71 103.04 22.82 103.03 22.82"/></g></g></svg>