<svg xmlns="http://www.w3.org/2000/svg" viewBox="0 0 102.46 103.04"><title>arrow-down</title><g id="Livello_2" data-name="Livello 2"><g id="Livello_2-2" data-name="Livello 2"><polygon points="79.64 68.71 68.26 68.71 68.26 80.14 56.81 80.14 56.81 91.59 45.65 91.59 45.65 80.14 34.2 80.14 34.2 68.71 22.82 68.71 22.82 57.29 11.38 57.29 11.38 68.74 22.75 68.74 22.75 80.16 34.2 80.16 34.2 91.59 45.51 91.59 45.51 103.04 56.95 103.04 56.95 91.59 68.26 91.59 68.26 80.16 79.71 80.16 79.71 68.74 91.09 68.74 91.09 57.29 79.64 57.29 79.64 68.71"/><polygon points="91.02 34.35 79.71 34.35 79.71 11.45 79.71 0.01 79.71 0 22.82 0 22.82 0.01 22.75 0.01 22.75 34.35 11.45 34.35 0 34.35 0 45.8 0 57.25 11.45 57.25 11.45 45.8 34.2 45.8 34.2 45.8 34.2 34.35 34.2 11.45 68.26 11.45 68.26 34.35 68.26 45.8 68.26 45.8 91.02 45.8 91.02 57.25 102.46 57.25 102.46 45.8 102.46 34.35 91.02 34.35"/></g></g></svg>