<svg xmlns="http://www.w3.org/2000/svg" viewBox="0 0 103.04 102.46"><title>arrow-right</title><g id="Livello_2" data-name="Livello 2"><g id="Livello_2-2" data-name="Livello 2"><polygon points="68.74 22.75 80.16 22.75 80.16 34.2 91.59 34.2 91.59 45.51 103.04 45.51 103.04 56.95 91.59 56.95 91.59 68.26 80.16 68.26 80.16 79.71 68.74 79.71 68.74 91.09 57.29 91.09 57.29 79.64 68.71 79.64 68.71 68.26 80.14 68.26 80.14 56.81 91.59 56.81 91.59 45.65 80.14 45.65 80.14 34.2 68.71 34.2 68.71 22.82 57.29 22.82 57.29 11.38 68.74 11.38 68.74 22.75"/><polygon points="0.01 22.82 0.01 22.75 34.35 22.75 34.35 11.45 34.35 0 45.8 0 57.25 0 57.25 11.45 45.8 11.45 45.8 34.2 45.8 34.2 34.35 34.2 11.45 34.2 11.45 68.26 34.35 68.26 45.8 68.26 45.8 68.26 45.8 91.02 57.25 91.02 57.25 102.46 45.8 102.46 34.35 102.46 34.35 91.02 34.35 79.71 11.45 79.71 0.01 79.71 0 79.71 0 22.82 0.01 22.82"/></g></g></svg>