<svg xmlns="http://www.w3.org/2000/svg" viewBox="0 0 102.43 103.02"><title>chat</title><g id="Livello_2" data-name="Livello 2"><g id="Livello_2-2" data-name="Livello 2"><polygon points="91.09 11.45 91.09 0 0 0 0 0.25 0 11.45 0 68.69 11.38 68.69 11.38 80.14 56.81 80.14 56.81 68.68 11.38 68.68 11.38 11.45 90.98 11.45 90.98 68.68 79.74 68.68 79.74 80.13 102.43 80.13 102.43 68.69 102.43 68.68 102.43 11.45 91.09 11.45"/><polygon points="45.58 34.34 45.58 22.9 34.13 22.9 34.13 34.34 45.51 34.34 45.51 45.79 34.13 45.79 34.13 57.23 45.58 57.23 45.58 45.79 56.95 45.79 56.95 57.23 68.4 57.23 68.4 45.79 56.95 45.79 56.95 34.34 45.58 34.34"/><polygon points="68.26 91.58 68.26 103.02 79.71 103.02 79.71 91.57 68.26 91.57 68.26 80.14 56.81 80.14 56.81 91.58 68.26 91.58"/><rect x="56.96" y="22.9" width="11.45" height="11.45"/></g></g></svg>