<svg xmlns="http://www.w3.org/2000/svg" viewBox="0 0 102.46 103.01"><title>clock</title><g id="Livello_2" data-name="Livello 2"><g id="Livello_2-2" data-name="Livello 2"><polygon points="11.45 34.37 22.82 34.37 22.82 22.92 11.38 22.92 11.38 34.33 0 34.33 0 68.67 11.45 68.67 11.45 34.37"/><polygon points="91.16 34.33 91.16 22.92 79.71 22.92 79.71 34.37 91.02 34.37 91.02 68.67 102.46 68.67 102.46 34.33 91.16 34.33"/><rect x="79.71" y="68.69" width="11.45" height="11.45"/><polygon points="45.58 22.92 45.58 45.78 45.51 45.78 45.51 57.23 45.58 57.23 57.03 57.23 68.26 57.23 68.26 45.78 57.03 45.78 57.03 22.92 45.58 22.92"/><polygon points="34.2 11.45 68.26 11.45 68.26 22.89 79.71 22.89 79.71 11.45 68.47 11.45 68.47 0 34.13 0 34.13 11.45 22.75 11.45 22.75 22.89 34.2 22.89 34.2 11.45"/><polygon points="68.26 91.56 34.2 91.56 34.2 80.13 22.82 80.13 22.82 68.69 11.38 68.69 11.38 80.13 22.75 80.13 22.75 91.58 34.13 91.58 34.13 103.01 68.47 103.01 68.47 91.58 79.71 91.58 79.71 80.13 68.26 80.13 68.26 91.56"/></g></g></svg>