<svg xmlns="http://www.w3.org/2000/svg" viewBox="0 0 102.39 103.03"><title>coffee</title><g id="Livello_2" data-name="Livello 2"><g id="Livello_2-2" data-name="Livello 2"><rect width="11.45" height="11.45"/><rect x="11.45" y="11.45" width="11.45" height="11.45"/><rect x="11.45" y="91.63" width="56.88" height="11.4"/><polygon points="45.51 11.45 45.51 0 34.06 0 34.06 11.45 34.06 22.89 45.51 22.89 45.51 11.45"/><path d="M91,45.79v34.3H79.71V45.79H91V34.34H0V91.58H11.45V80.09H68.26V91.58H79.71v0H91.09V80.09h11.3V45.79ZM11.45,68.69V45.79h11.3V57.24H56.88V45.79H68.26v22.9Z"/><polygon points="68.33 11.45 79.71 11.45 79.71 0 68.26 0 68.26 11.45 56.88 11.45 56.88 22.89 68.33 22.89 68.33 11.45"/></g></g></svg>