<svg xmlns="http://www.w3.org/2000/svg" viewBox="0 0 57.1 171.85"><title>elevator</title><g id="Livello_2" data-name="Livello 2"><g id="Livello_2-2" data-name="Livello 2"><path d="M45.65,57.19V91.72H34.27V57.34H45.58V45.87H11.38V57.19H0v57.34H11.29V126h34.2V114.53H57.1V57.19Zm-34.2.15H22.82V91.72H11.45Z"/><polygon points="22.82 148.95 11.45 148.95 11.45 137.51 0 137.51 0 148.95 11.38 148.95 11.38 160.4 22.75 160.4 22.75 171.85 34.2 171.85 34.2 160.4 22.82 160.4 22.82 148.95"/><rect x="34.2" y="148.95" width="11.45" height="11.45"/><rect x="45.65" y="137.51" width="11.45" height="11.45"/><polygon points="45.72 22.89 45.72 11.45 34.34 11.45 34.34 0 22.89 0 22.89 11.45 34.27 11.45 34.27 22.89 45.65 22.89 45.65 34.34 57.1 34.34 57.1 22.89 45.72 22.89"/><rect x="11.45" y="11.45" width="11.45" height="11.45"/><rect y="22.9" width="11.45" height="11.45"/></g></g></svg>