<svg xmlns="http://www.w3.org/2000/svg" viewBox="0 0 125.15 103.03"><title>face</title><g id="Livello_2" data-name="Livello 2"><g id="Livello_2-2" data-name="Livello 2"><polygon points="102.36 22.89 113.74 22.89 113.74 11.45 102.36 11.45 102.36 0 91.02 0 91.02 11.45 90.98 11.45 90.98 22.89 91.02 22.89 91.02 45.79 90.98 45.79 90.98 57.24 91.02 57.24 91.02 80.13 79.61 80.13 79.61 91.51 91.02 91.51 102.36 91.51 102.36 80.13 102.36 57.24 113.74 57.24 113.74 45.79 102.36 45.79 102.36 22.89"/><rect x="45.48" width="34.13" height="11.45"/><polygon points="68.23 68.69 34.1 68.69 34.1 57.24 22.79 57.24 22.79 45.79 34.1 45.79 34.1 34.34 34.1 22.89 34.13 22.89 34.13 0 34.1 0 22.72 0 0 0 0 22.89 22.72 22.89 22.72 34.34 11.35 34.34 11.35 40.07 11.35 45.79 11.35 57.24 11.35 62.82 11.35 68.69 22.69 68.69 22.69 68.76 22.69 68.76 22.69 91.51 34.13 91.51 34.13 80.13 68.23 80.13 68.23 68.69"/><rect x="34.13" y="91.79" width="45.47" height="11.24"/><rect x="45.48" y="22.89" width="22.75" height="11.45"/><rect x="68.23" y="45.86" width="11.44" height="22.75"/><rect x="113.7" y="22.96" width="11.44" height="22.75"/></g></g></svg>