<svg xmlns="http://www.w3.org/2000/svg" viewBox="0 0 216.17 91.47"><title>glasses</title><g id="Livello_2" data-name="Livello 2"><g id="Livello_2-2" data-name="Livello 2"><path d="M216.17,45.68H193.55V34.24H182.14V22.82H170.73V11.41H159.31V0H136.59V11.41h0V22.86H148V11.45h11.27V22.86h11.41V34.27H182.1V45.68H136.6V57.12H102.43V45.68H57V34.24H45.58V22.82H34.17V11.41H22.75V0H0V11.41H0V22.86H11.45V11.45H22.72V22.86H34.13V34.27H45.54V45.68H22.86V57.13H34.13V68.57H45.6V80H57V91.47h45.44V80h11.39V68.58h11.39V80H136.6V91.47H182V80h11.39V68.57H204.9V57.13h11.27ZM91,80H68.39V68.57H56.92V57.13H79.66V68.58H91Zm91.08-11.44H170.65V80H148V68.58h11.32V57.13h22.79Z"/></g></g></svg>