<?xml version="1.0" encoding="UTF-8"?>
<svg width="164px" height="67px" viewBox="0 0 164 67" version="1.1" xmlns="http://www.w3.org/2000/svg" xmlns:xlink="http://www.w3.org/1999/xlink">
    <!-- Generator: Sketch 51.1 (57501) - http://www.bohemiancoding.com/sketch -->
    <title>Group</title>
    <desc>Created with Sketch.</desc>
    <defs></defs>
    <g id="Desktop-1280px" stroke="none" stroke-width="1" fill="none" fill-rule="evenodd">
        <g id="00---Home-hover" transform="translate(-55.000000, -28.000000)">
            <g id="Group" transform="translate(55.000000, 28.000000)">
                <path d="M0.54,43.31 L4.46,43.31 C2.29,43.31 0.54,41.56 0.54,39.39 L0.54,31.69 C0.54,27.28 3.97,23.85 8.31,23.85 L8.31,16.08 L23.92,16.08 L23.92,19.3 C24.27,17.48 25.88,16.08 27.77,16.08 L27.77,20 C27.77,17.83 29.52,16.08 31.69,16.08 L31.69,23.92 C29.52,23.92 27.77,22.17 27.77,20 L27.77,23.92 C25.88,23.92 24.27,22.52 23.92,20.7 L23.92,23.92 L8.38,23.92 L8.38,31.69 L8.31,31.69 L8.31,39.39 L8.38,39.39 C8.38,41.56 6.63,43.31 4.46,43.31 L8.38,43.31 C8.38,45.48 6.63,47.23 4.46,47.23 C2.29,47.23 0.54,45.48 0.54,43.31 Z M31.69,31.69 L31.69,23.92 L39.46,23.92 L39.46,31.69 L31.69,31.69 Z M31.69,35.54 C31.69,33.37 33.37,31.69 35.54,31.69 C37.71,31.69 39.46,33.37 39.46,35.54 C39.46,37.71 37.71,39.46 35.54,39.46 C33.37,39.46 31.69,37.71 31.69,35.54 Z M31.69,43.31 C31.69,41.14 33.37,39.46 35.54,39.46 C37.71,39.46 39.46,41.14 39.46,43.31 C39.46,45.48 37.71,47.23 35.54,47.23 C33.37,47.23 31.69,45.48 31.69,43.31 Z M12.23,55 C10.06,55 8.31,53.25 8.31,51.08 C8.31,48.91 10.06,47.16 12.23,47.16 L12.23,51.08 C12.23,48.91 13.98,47.16 16.15,47.16 L16.15,50.45 C16.5,48.56 18.04,47.16 20,47.16 L20,51.08 C20,48.91 21.75,47.16 23.92,47.16 L23.92,55 C21.75,55 20,53.25 20,51.08 L20,55 C18.04,55 16.5,53.67 16.15,51.78 L16.15,55 C13.98,55 12.23,53.25 12.23,51.08 L12.23,55 Z M23.92,51.08 C23.92,48.91 25.6,47.23 27.77,47.23 C29.94,47.23 31.69,48.91 31.69,51.08 C31.69,53.25 29.94,55 27.77,55 C25.6,55 23.92,53.25 23.92,51.08 Z M90,47.23 C87.83,47.23 86.08,45.48 86.08,43.31 C86.08,41.14 87.83,39.39 90,39.39 L90,43.31 C90,41.14 91.75,39.39 93.92,39.39 L93.92,39.46 L101.2,39.46 C97.07,39.25 93.85,35.89 93.85,31.62 L97.07,31.62 C95.25,31.34 93.85,29.73 93.85,27.77 C93.85,25.81 95.25,24.27 97.07,23.92 L93.92,23.92 L93.92,8.31 L97.14,8.31 C95.53,8.03 94.2,6.77 93.92,5.16 L93.92,8.31 L86.08,8.31 L86.08,0.54 L101.69,0.54 C101.69,2.71 99.94,4.46 97.77,4.46 L101.69,4.46 C101.69,6.42 100.29,8.03 98.4,8.31 L101.69,8.31 L101.69,47.23 L93.92,47.23 C91.75,47.23 90,45.48 90,43.31 L90,47.23 Z M97.77,4.46 C95.88,4.46 94.27,3.06 93.92,1.24 L93.92,4.46 L97.77,4.46 Z M62.77,23.85 L70.54,23.85 L70.54,16.08 L86.15,16.08 L86.15,19.3 C86.5,17.48 88.04,16.08 90,16.08 C92.17,16.08 93.92,17.83 93.92,20 L90,20 C92.17,20 93.92,21.75 93.92,23.92 L86.08,23.92 C81.81,23.92 78.52,20.63 78.31,16.36 L78.31,23.92 L70.61,23.92 C70.47,28.33 67.11,31.69 62.77,31.69 L62.77,23.85 Z M90,20 L86.15,20 L86.15,23.22 C86.5,21.4 88.04,20 90,20 Z M97.77,27.77 C97.77,25.81 99.17,24.27 100.99,23.92 L97.77,23.92 L97.77,27.77 Z M97.77,27.77 L97.77,31.62 L100.99,31.62 C99.17,31.34 97.77,29.73 97.77,27.77 Z M70.54,55 L70.54,47.23 L62.77,47.23 C62.77,43.03 65.92,39.67 70.05,39.46 C68.16,39.18 66.69,37.57 66.69,35.54 L66.69,39.46 C64.52,39.46 62.77,37.71 62.77,35.54 C62.77,33.37 64.52,31.62 66.69,31.62 L66.69,35.54 C66.69,33.37 68.44,31.62 70.61,31.62 L70.61,47.23 L78.31,47.23 L78.31,47.16 L86.15,47.16 C86.15,49.33 84.4,51.08 82.23,51.08 L86.15,51.08 C86.15,53.25 84.4,55 82.23,55 C80.13,55 78.45,53.39 78.31,51.36 L78.31,55 L70.54,55 Z M93.92,51.08 C93.92,48.91 95.6,47.23 97.77,47.23 C99.94,47.23 101.69,48.91 101.69,51.08 C101.69,53.25 99.94,55 97.77,55 C95.6,55 93.92,53.25 93.92,51.08 Z M101.69,55 L101.69,47.23 L109.46,47.23 L109.46,55 L101.69,55 Z M82.23,51.08 C80.13,51.08 78.45,49.47 78.31,47.44 L78.31,51.08 L82.23,51.08 Z M125,47.23 L125,39.46 C125,37.29 126.75,35.54 128.92,35.54 L125,35.54 C125,33.58 126.4,31.97 128.22,31.69 L125,31.69 L125,23.92 L132.77,23.92 C132.77,21.75 134.52,20 136.69,20 L132.77,20 C132.77,17.83 134.52,16.08 136.69,16.08 C138.65,16.08 140.33,17.55 140.54,19.51 C140.82,17.55 142.43,16.08 144.46,16.08 L144.46,20 C144.46,17.83 146.21,16.08 148.38,16.08 L148.38,19.3 C148.73,17.48 150.27,16.08 152.23,16.08 L152.23,20 C152.23,17.83 153.98,16.08 156.15,16.08 L156.15,23.92 C153.98,23.92 152.23,22.17 152.23,20 L152.23,23.92 C150.27,23.92 148.73,22.52 148.38,20.7 L148.38,23.92 C146.21,23.92 144.46,22.17 144.46,20 L144.46,23.92 C142.29,23.92 140.54,22.17 140.54,20 L136.69,20 C138.86,20 140.61,21.75 140.61,23.92 L132.77,23.92 L132.77,31.69 L129.55,31.69 C131.23,31.97 132.49,33.3 132.77,34.98 L132.77,31.69 L148.31,31.69 L148.31,39.46 L132.77,39.46 L132.77,47.23 L125,47.23 Z M160,31.69 C157.83,31.69 156.08,29.94 156.08,27.77 C156.08,25.6 157.83,23.85 160,23.85 L160,27.77 C160,25.6 161.75,23.85 163.92,23.85 L163.92,31.69 C161.75,31.69 160,29.94 160,27.77 L160,31.69 Z M148.31,35.54 C148.31,33.37 150.06,31.69 152.23,31.69 C154.19,31.69 155.73,33.02 156.08,34.84 L156.08,31.62 C160.49,31.62 163.92,35.05 163.92,39.46 L156.08,39.46 L156.08,36.24 C155.73,38.06 154.19,39.46 152.23,39.46 C150.06,39.46 148.31,37.71 148.31,35.54 Z M128.92,35.54 C130.88,35.54 132.49,37.01 132.77,38.9 L132.77,35.54 L128.92,35.54 Z M163.92,47.16 L163.92,55 C159.51,55 156.08,51.57 156.08,47.16 L163.92,47.16 Z M132.77,51.08 C132.77,48.91 134.52,47.23 136.69,47.23 C138.86,47.23 140.54,48.91 140.54,51.08 C140.54,53.25 138.86,55 136.69,55 C134.52,55 132.77,53.25 132.77,51.08 Z M140.54,55 L140.54,47.23 L148.31,47.23 L148.31,55 L140.54,55 Z M148.31,51.08 C148.31,48.91 150.06,47.23 152.23,47.23 C154.4,47.23 156.15,48.91 156.15,51.08 C156.15,53.25 154.4,55 152.23,55 C150.06,55 148.31,53.25 148.31,51.08 Z" id="ode" fill="#23F0C7"></path>
                <path d="M21.16,13.84 L21.16,7.06 L23.38,7.06 L23.38,4.84 L30.16,4.84 L30.16,7.06 L32.38,7.06 L32.38,13.84 L30.16,13.84 L30.16,16.06 L23.38,16.06 L23.38,13.84 L21.16,13.84 Z M30.06,7.16 L23.5,7.16 L23.5,13.72 L30.06,13.72 L30.06,7.16 Z M36.72,16.06 L36.72,13.72 L38.94,13.72 L38.94,7.16 L36.72,7.16 L36.72,4.84 L38.94,4.84 L38.94,2.62 L41.18,2.62 L41.18,0.38 L47.94,0.38 L47.94,2.72 L41.28,2.72 L41.28,4.84 L45.72,4.84 L45.72,7.16 L41.28,7.16 L41.28,13.72 L43.5,13.72 L43.5,16.06 L36.72,16.06 Z M47.82,16.06 L47.82,13.72 L50.04,13.72 L50.04,7.16 L47.82,7.16 L47.82,4.84 L50.04,4.84 L50.04,2.62 L52.28,2.62 L52.28,0.38 L59.04,0.38 L59.04,2.72 L52.38,2.72 L52.38,4.84 L56.82,4.84 L56.82,7.16 L52.38,7.16 L52.38,13.72 L54.6,13.72 L54.6,16.06 L47.82,16.06 Z M61.14,2.72 L61.14,0.38 L63.48,0.38 L63.48,2.72 L61.14,2.72 Z M58.92,16.06 L58.92,13.72 L61.14,13.72 L61.14,7.16 L58.92,7.16 L58.92,4.84 L63.48,4.84 L63.48,13.72 L65.7,13.72 L65.7,16.06 L58.92,16.06 Z M70.04,13.84 L70.04,7.06 L72.26,7.06 L72.26,4.84 L79.04,4.84 L79.04,9.38 L76.72,9.38 L76.72,7.16 L72.38,7.16 L72.38,13.72 L79.04,13.72 L79.04,16.06 L72.26,16.06 L72.26,13.84 L70.04,13.84 Z M85.6,2.72 L85.6,0.38 L87.94,0.38 L87.94,2.72 L85.6,2.72 Z M83.38,16.06 L83.38,13.72 L85.6,13.72 L85.6,7.16 L83.38,7.16 L83.38,4.84 L87.94,4.84 L87.94,13.72 L90.16,13.72 L90.16,16.06 L83.38,16.06 Z M94.5,16.06 L94.5,13.72 L96.72,13.72 L96.72,7.16 L94.5,7.16 L94.5,4.84 L99.06,4.84 L99.06,7.06 L101.18,7.06 L101.18,4.84 L105.72,4.84 L105.72,7.06 L107.96,7.06 L107.96,13.72 L110.18,13.72 L110.18,16.06 L105.62,16.06 L105.62,7.16 L101.28,7.16 L101.28,9.38 L99.06,9.38 L99.06,16.06 L94.5,16.06 Z M114.5,13.84 L114.5,9.28 L121.18,9.28 L121.18,7.16 L114.5,7.16 L114.5,4.84 L121.28,4.84 L121.28,7.06 L123.5,7.06 L123.5,13.72 L125.72,13.72 L125.72,16.06 L123.4,16.06 L123.4,13.84 L121.28,13.84 L121.28,16.06 L116.72,16.06 L116.72,13.84 L114.5,13.84 Z M121.18,11.62 L116.84,11.62 L116.84,13.72 L121.18,13.72 L121.18,11.62 Z M21.16,38.84 L21.16,32.06 L23.38,32.06 L23.38,29.84 L30.06,29.84 L30.06,27.72 L27.84,27.72 L27.84,25.38 L32.38,25.38 L32.38,38.72 L34.62,38.72 L34.62,41.06 L30.06,41.06 L30.06,38.84 L27.94,38.84 L27.94,41.06 L23.38,41.06 L23.38,38.84 L21.16,38.84 Z M30.06,32.16 L23.5,32.16 L23.5,38.72 L27.84,38.72 L27.84,36.5 L30.06,36.5 L30.06,32.16 Z M38.94,38.84 L38.94,32.06 L41.16,32.06 L41.16,29.84 L47.94,29.84 L47.94,32.06 L50.16,32.06 L50.16,36.62 L41.28,36.62 L41.28,38.72 L50.16,38.72 L50.16,41.06 L41.16,41.06 L41.16,38.84 L38.94,38.84 Z M47.84,34.28 L47.84,32.16 L41.28,32.16 L41.28,34.28 L47.84,34.28 Z M52.28,43.28 L52.28,40.94 L54.5,40.94 L54.5,32.06 L56.74,32.06 L56.74,29.84 L65.74,29.84 L65.74,32.16 L63.5,32.16 L63.5,34.38 L61.28,34.38 L61.28,36.62 L56.84,36.62 L56.84,38.72 L61.28,38.72 L61.28,40.94 L63.5,40.94 L63.5,43.28 L61.28,43.28 L61.28,45.5 L54.5,45.5 L54.5,43.28 L52.28,43.28 Z M61.18,32.16 L56.84,32.16 L56.84,34.28 L61.18,34.28 L61.18,32.16 Z M61.18,43.16 L61.18,41.06 L54.62,41.06 L54.62,43.16 L61.18,43.16 Z M70.06,41.06 L70.06,27.72 L67.84,27.72 L67.84,25.38 L72.4,25.38 L72.4,38.72 L74.62,38.72 L74.62,41.06 L70.06,41.06 Z M81.18,27.72 L81.18,25.38 L83.52,25.38 L83.52,27.72 L81.18,27.72 Z M78.96,41.06 L78.96,38.72 L81.18,38.72 L81.18,32.16 L78.96,32.16 L78.96,29.84 L83.52,29.84 L83.52,38.72 L85.74,38.72 L85.74,41.06 L78.96,41.06 Z M21.16,63.84 L21.16,57.06 L23.38,57.06 L23.38,54.84 L30.16,54.84 L30.16,57.06 L32.38,57.06 L32.38,61.62 L23.5,61.62 L23.5,63.72 L32.38,63.72 L32.38,66.06 L23.38,66.06 L23.38,63.84 L21.16,63.84 Z M30.06,59.28 L30.06,57.16 L23.5,57.16 L23.5,59.28 L30.06,59.28 Z M36.72,66.06 L36.72,63.72 L43.4,63.72 L43.4,61.62 L38.94,61.62 L38.94,59.38 L36.72,59.38 L36.72,57.06 L38.94,57.06 L38.94,54.84 L45.72,54.84 L45.72,57.16 L39.06,57.16 L39.06,59.28 L43.5,59.28 L43.5,61.5 L45.72,61.5 L45.72,63.84 L43.5,63.84 L43.5,66.06 L36.72,66.06 Z M50.06,63.84 L50.06,57.06 L52.28,57.06 L52.28,54.84 L59.06,54.84 L59.06,57.06 L61.28,57.06 L61.28,63.84 L59.06,63.84 L59.06,66.06 L52.28,66.06 L52.28,63.84 L50.06,63.84 Z M58.96,57.16 L52.4,57.16 L52.4,63.72 L58.96,63.72 L58.96,57.16 Z M65.62,66.06 L65.62,63.72 L67.84,63.72 L67.84,57.16 L65.62,57.16 L65.62,54.84 L70.18,54.84 L70.18,57.06 L72.3,57.06 L72.3,54.84 L76.84,54.84 L76.84,57.16 L72.4,57.16 L72.4,59.38 L70.18,59.38 L70.18,63.72 L74.62,63.72 L74.62,66.06 L65.62,66.06 Z M81.18,63.84 L81.18,57.06 L83.4,57.06 L83.4,54.84 L90.08,54.84 L90.08,52.72 L87.86,52.72 L87.86,50.38 L92.4,50.38 L92.4,63.72 L94.64,63.72 L94.64,66.06 L90.08,66.06 L90.08,63.84 L87.96,63.84 L87.96,66.06 L83.4,66.06 L83.4,63.84 L81.18,63.84 Z M90.08,57.16 L83.52,57.16 L83.52,63.72 L87.86,63.72 L87.86,61.5 L90.08,61.5 L90.08,57.16 Z M101.18,52.72 L101.18,50.38 L103.52,50.38 L103.52,52.72 L101.18,52.72 Z M98.96,66.06 L98.96,63.72 L101.18,63.72 L101.18,57.16 L98.96,57.16 L98.96,54.84 L103.52,54.84 L103.52,63.72 L105.74,63.72 L105.74,66.06 L98.96,66.06 Z" id="officina-degli-esord" fill="#000000"></path>
            </g>
        </g>
    </g>
</svg>