<svg xmlns="http://www.w3.org/2000/svg" viewBox="0 0 91.09 103.03"><title>phone</title><g id="Livello_2" data-name="Livello 2"><g id="Livello_2-2" data-name="Livello 2"><polygon points="79.71 57.24 68.26 57.24 68.26 68.69 79.64 68.69 79.64 80.13 91.09 80.13 91.09 68.69 79.71 68.69 79.71 57.24"/><polygon points="79.64 11.45 79.64 22.89 68.26 22.89 68.26 34.34 79.71 34.34 79.71 22.89 91.09 22.89 91.09 11.45 79.64 11.45"/><path d="M56.86,11.45h0V0H0V103H56.92V68.69h-.06ZM34.1,91.58H22.82V80.13H34.1ZM45.51,22.9H34.33V34.34H45.51V68.69H11.35V57.23H22.82V45.79H34.17V34.34H22.72V45.79H11.35V11.45H45.51Z"/></g></g></svg>