<svg xmlns="http://www.w3.org/2000/svg" viewBox="0 0 102.55 103.03"><title>skull-2</title><g id="Livello_2" data-name="Livello 2"><g id="Livello_2-2" data-name="Livello 2"><path d="M91.05,34.34H79.67V23H68.3V11.55H34.11V23H22.86V0H11.41V11.55H0V23H22.79V34.34H11.43V45.79h0V57.24h0V68.69H22.79V80.13h.07V103H34.31V80.13H45.48V103H56.93V80.13H68.3V103H79.74V76.89h-.07v-8.2H91.05V57.24h.07V45.79h-.07ZM45.48,45.79V57.24H22.86V45.79ZM79.67,57.24H56.93V45.79H79.67Z"/><polygon points="91.14 11.55 91.14 0 79.69 0 79.69 11.55 79.69 12.45 79.69 23 102.55 23 102.55 11.55 91.14 11.55"/></g></g></svg>