<svg xmlns="http://www.w3.org/2000/svg" viewBox="0 0 91.05 103.13"><title>sound</title><g id="Livello_2" data-name="Livello 2"><g id="Livello_2-2" data-name="Livello 2"><rect y="22.79" width="11.45" height="11.45"/><rect y="45.74" width="11.45" height="11.45"/><rect x="79.6" y="91.69" width="11.45" height="11.45"/><rect x="56.83" y="91.69" width="11.45" height="11.45"/><polygon points="90.98 11.34 90.98 0 56.85 0 56.85 11.34 34.17 11.34 22.72 11.34 22.72 11.34 22.72 68.69 0 68.69 0 91.47 34.17 91.47 34.17 68.69 34.17 45.68 68.19 45.68 68.19 34.32 34.17 34.32 34.17 22.79 56.85 22.79 56.85 11.45 79.6 11.45 79.6 22.79 68.19 22.79 68.19 34.24 79.6 34.24 79.6 57.29 56.83 57.29 56.83 80.08 91 80.08 91 68.69 91.05 68.69 91.05 11.34 90.98 11.34"/></g></g></svg>