<svg xmlns="http://www.w3.org/2000/svg" viewBox="0 0 171.88 80.11"><title>wc</title><g id="Livello_2" data-name="Livello 2"><g id="Livello_2-2" data-name="Livello 2"><rect y="0.01" width="11.45" height="57.18"/><rect x="125.08" y="68.64" width="34.2" height="11.47"/><rect x="125.08" width="34.2" height="11.47"/><rect x="113.77" y="11.5" width="11.31" height="57.14"/><rect x="159.28" y="11.5" width="12.61" height="22.8"/><polygon points="56.95 57.19 56.95 22.85 45.51 22.85 45.51 57.19 34.13 57.19 34.13 68.64 22.89 68.64 22.89 57.19 11.45 57.19 11.45 68.64 22.75 68.64 22.75 80.09 34.2 80.09 34.2 68.64 45.58 68.64 45.58 57.19 56.88 57.19 56.88 68.64 68.33 68.64 68.33 57.19 56.95 57.19"/><rect x="68.33" y="68.64" width="11.45" height="11.45"/><rect x="159.86" y="57.19" width="11.45" height="11.45"/><polygon points="91.02 57.19 79.78 57.19 79.78 68.64 91.23 68.64 91.23 57.19 102.46 57.19 102.46 0.01 91.02 0.01 91.02 57.19"/></g></g></svg>