<svg xmlns="http://www.w3.org/2000/svg" viewBox="0 0 171.88 125.47"><title>wc2</title><g id="Livello_2" data-name="Livello 2"><g id="Livello_2-2" data-name="Livello 2"><rect y="22.67" width="11.45" height="57.18"/><polygon points="22.75 91.3 22.75 102.75 34.2 102.75 34.2 91.3 45.58 91.3 45.58 79.86 56.88 79.86 56.88 91.3 68.33 91.3 68.33 79.86 56.95 79.86 56.95 45.51 45.51 45.51 45.51 79.86 34.13 79.86 34.13 91.3 22.89 91.3 22.89 79.86 11.45 79.86 11.45 91.3 22.75 91.3"/><rect x="125.08" y="91.3" width="34.2" height="11.47"/><rect y="114.2" width="170.72" height="11.27"/><rect width="170.72" height="11.27"/><rect x="125.08" y="22.66" width="34.2" height="11.47"/><rect x="113.77" y="34.16" width="11.31" height="57.14"/><rect x="159.28" y="34.16" width="12.61" height="22.8"/><rect x="68.33" y="91.3" width="11.45" height="11.45"/><rect x="159.28" y="79.86" width="11.45" height="11.45"/><polygon points="91.23 79.86 102.46 79.86 102.46 22.67 91.02 22.67 91.02 79.86 79.78 79.86 79.78 91.3 91.23 91.3 91.23 79.86"/></g></g></svg>