<svg xmlns="http://www.w3.org/2000/svg" viewBox="0 0 193.41 102.96"><title>wcinvert</title><g id="Livello_2" data-name="Livello 2"><g id="Livello_2-2" data-name="Livello 2"><path d="M0,0V103H193.41V0ZM135.84,11.43H170V22.89h-34.2ZM113.23,68.62H102V80.07H90.54V91.51H79.09V80.07H67.65V68.62H56.34V80.07H45V91.51H33.52V80.07H22.21V68.62H10.76V11.43H22.21V68.62H33.66V80.07H44.89V68.62H56.27V34.28H67.72V68.62H79.09V80.07H90.54V68.62h11.24V11.43h11.45ZM170,91.53h-34.2V80.07H124.53V22.93h11.31V80.07H170Zm12-11.46H170.62V68.62h11.45Zm.57-34.35H170V22.93h12.6Z"/></g></g></svg>