<svg xmlns="http://www.w3.org/2000/svg" viewBox="0 0 147.9 103.03"><title>monkey</title><g id="Livello_2" data-name="Livello 2"><g id="Livello_2-2" data-name="Livello 2"><rect x="91.02" y="34.35" width="11.45" height="11.45"/><rect x="45.51" y="45.8" width="11.45" height="11.45"/><path d="M125.22,68.69h11.37V57.24H147.9V34.35H136.52V57.24h-11.3v-23h11.45V22.83H125.29V11.45H113.77V0H34.13V11.45H22.75V22.9H11.38V34.35H0V57.24H11.38V34.35H22.75V57.24H11.38V68.69H22.75V80.14H11.38V91.58H.07V103H147.9V91.58H136.52V80.14H125.18V68.69Zm-11.45,0H102.36V91.58H56.88V80.14H45.58V68.69H34.2V34.35H68.26V68.69H91.09V57.24H79.71V34.35h-.07V22.9H57V11.45H91.09V22.9h11.37V34.28h11.31Z"/></g></g></svg>