<svg xmlns="http://www.w3.org/2000/svg" viewBox="0 0 102.46 103.12"><title>skull</title><g id="Livello_2" data-name="Livello 2"><g id="Livello_2-2" data-name="Livello 2"><path d="M79.74,68.73V45.81h-.07V34.39H68.3V22.94H34.17V34.39H22.79V45.84h0V68.73H34.17V91.6H68.3V68.73ZM57,57.26V45.84H68.3V57.26ZM34.27,45.84H45.56V57.26H34.27Z"/><polygon points="11.45 22.94 22.82 22.94 22.82 0 11.38 0 11.38 11.49 0 11.49 0 22.94 11.38 22.94 11.45 22.94"/><polygon points="91.09 11.49 91.09 0 79.64 0 79.64 22.94 91.02 22.94 91.09 22.94 102.46 22.94 102.46 11.49 91.09 11.49"/><polygon points="11.38 80.18 0 80.18 0 91.63 11.38 91.63 11.38 103.12 22.82 103.12 22.82 80.18 11.45 80.18 11.38 80.18"/><polygon points="91.02 80.18 79.64 80.18 79.64 103.12 91.09 103.12 91.09 91.63 102.46 91.63 102.46 80.18 91.09 80.18 91.02 80.18"/></g></g></svg>